<?xml version="1.0" encoding="iso-8859-1"?>
<!-- Generator: Adobe Illustrator 19.0.0, SVG Export Plug-In . SVG Version: 6.00 Build 0)  -->
<svg version="1.1" id="Capa_1" xmlns="http://www.w3.org/2000/svg" xmlns:xlink="http://www.w3.org/1999/xlink" x="0px" y="0px"
	 viewBox="0 0 512.077 512.077" style="enable-background:new 0 0 512.077 512.077;" xml:space="preserve">
<g>
	<g>
		<g>
			<path fill="#e3871d" d="M290.172,102.4h34.133c4.713,0,8.533-3.821,8.533-8.533c0-4.713-3.82-8.533-8.533-8.533h-34.133
				c-4.713,0-8.533,3.821-8.533,8.533C281.639,98.579,285.459,102.4,290.172,102.4z"/>
			<path fill="#e3871d" d="M358.439,102.4h76.8c4.713,0,8.533-3.821,8.533-8.533c0-4.713-3.82-8.533-8.533-8.533h-76.8
				c-4.713,0-8.533,3.821-8.533,8.533C349.905,98.579,353.726,102.4,358.439,102.4z"/>
			<path fill="#e3871d" d="M358.439,119.467h-25.6c-4.713,0-8.533,3.82-8.533,8.533s3.821,8.533,8.533,8.533h25.6c4.713,0,8.533-3.82,8.533-8.533
				S363.152,119.467,358.439,119.467z"/>
			<path fill="#e3871d" d="M435.239,119.467h-42.667c-4.713,0-8.533,3.82-8.533,8.533s3.821,8.533,8.533,8.533h42.667
				c4.713,0,8.533-3.82,8.533-8.533S439.952,119.467,435.239,119.467z"/>
			<path fill="#e3871d" d="M290.172,136.533h8.533c4.713,0,8.533-3.82,8.533-8.533s-3.82-8.533-8.533-8.533h-8.533c-4.713,0-8.533,3.82-8.533,8.533
				S285.459,136.533,290.172,136.533z"/>
			<path fill="#e3871d" d="M477.905,0H34.172C15.329,0.02,0.059,15.29,0.039,34.133v290.133c0.02,18.843,15.29,34.113,34.133,34.133h159.196
				l-22.13,22.13c-29.237-7.777-60.054,5.039-75.155,31.254c-15.101,26.215-10.727,59.303,10.668,80.693s54.484,25.757,80.695,10.65
				s39.02-45.927,31.237-75.162l37.357-37.357l37.354,37.357c-7.786,29.239,5.023,60.063,31.237,75.173
				c26.215,15.11,59.308,10.743,80.706-10.65c21.398-21.393,25.772-54.485,10.668-80.703
				c-15.104-26.218-45.926-39.034-75.166-31.255l-22.132-22.13h159.198c18.843-0.02,34.113-15.29,34.133-34.133V34.133
				C512.019,15.29,496.748,0.02,477.905,0z M189.339,480.341c-19.455,19.433-50.977,19.421-70.417-0.027s-19.44-50.97,0-70.417
				c19.44-19.447,50.963-19.459,70.417-0.027C208.762,429.346,208.762,460.866,189.339,480.341z M250.011,372.5l-0.004,0.002
				l-0.005,0.007l-38.456,38.458c-2.817-4.794-6.224-9.216-10.14-13.163l0,0c-3.949-3.916-8.373-7.323-13.168-10.14l31.752-31.752
				l0.031-0.031l34.077-34.077l0.006-0.003l7.936-7.853c0.225-0.224,0.435-0.461,0.629-0.712l138.421-138.421
				c10.63,16.463,8.377,38.105-5.417,52.025L312.813,309.7c-0.073,0.073-0.11,0.168-0.18,0.243l-26.529,26.549
				c-0.268,0.211-0.524,0.438-0.766,0.68l-0.016,0.015L250.011,372.5z M250.004,65.768c1.6,1.6,3.771,2.499,6.035,2.499
				c2.263,0.001,4.434-0.898,6.035-2.499c1.6-1.6,2.499-3.771,2.499-6.035V51.2h196.267v256H339.501l68.237-68.292
				c22.789-22.899,22.789-59.909,0-82.808c-1.6-1.601-3.77-2.5-6.033-2.5c-2.263,0-4.433,0.899-6.033,2.5L250.534,301.234
				c-0.289,0.254-0.562,0.527-0.815,0.817l-5.149,5.149H51.239v-256h196.267v8.533C247.505,61.997,248.404,64.168,250.004,65.768z
				 M393.205,409.871c14.252,14.251,18.515,35.683,10.803,54.303s-25.882,30.761-46.036,30.761
				c-20.154,0-38.324-12.141-46.036-30.761c-7.712-18.62-3.449-40.053,10.803-54.303
				C342.213,390.449,373.731,390.449,393.205,409.871z M323.84,387.665c-9.655,5.619-17.686,13.649-23.308,23.303l-32.425-32.428
				l20.14-20.14h6.325L323.84,387.665z M494.972,324.267c-0.011,9.421-7.645,17.056-17.067,17.067h-172.51l17.053-17.067h138.391
				c9.421-0.011,17.056-7.645,17.067-17.067v-256c-0.011-9.421-7.646-17.056-17.067-17.067h-409.6
				c-9.421,0.011-17.056,7.645-17.067,17.067v256c0.011,9.421,7.645,17.056,17.067,17.067h176.263l-17.067,17.067H34.172
				c-9.421-0.011-17.056-7.646-17.067-17.067V34.133c0.011-9.421,7.646-17.056,17.067-17.067h443.733
				c9.421,0.011,17.056,7.646,17.067,17.067V324.267z"/>
			<path fill="#e3871d" d="M104.039,173.867c14.453,0,27.483-8.706,33.013-22.059c5.531-13.353,2.474-28.722-7.746-38.942
				c-10.22-10.22-25.589-13.277-38.942-7.746c-13.353,5.531-22.059,18.561-22.059,33.013
				C68.329,157.859,84.313,173.843,104.039,173.867z M104.039,119.467c7.55,0,14.357,4.548,17.246,11.523
				c2.889,6.975,1.292,15.004-4.046,20.343c-5.339,5.339-13.367,6.936-20.343,4.047c-6.975-2.889-11.523-9.696-11.523-17.246
				C85.385,127.829,93.735,119.479,104.039,119.467z"/>
			<path fill="#e3871d" d="M194.705,193.067c-19.735,0-35.733,15.999-35.733,35.733c0,19.735,15.998,35.733,35.733,35.733
				c19.735,0,35.733-15.998,35.733-35.733C230.415,209.075,214.431,193.09,194.705,193.067z M207.72,242.117
				c-3.586,3.507-8.425,5.434-13.439,5.354c-10.254-0.231-18.401-8.69-18.248-18.945c0.153-10.255,8.55-18.467,18.806-18.392
				c10.256,0.075,18.531,8.409,18.534,18.666C213.341,233.815,211.306,238.61,207.72,242.117z"/>
			<path fill="#e3871d" d="M247.505,102.4c0,4.713,3.82,8.533,8.533,8.533c4.713,0,8.533-3.82,8.533-8.533v-8.533c0-4.713-3.82-8.533-8.533-8.533
				c-4.713,0-8.533,3.821-8.533,8.533V102.4z"/>
			<path fill="#e3871d" d="M256.039,128c-2.263-0.001-4.434,0.898-6.035,2.499c-1.6,1.6-2.499,3.771-2.499,6.035v8.533
				c0,4.713,3.82,8.533,8.533,8.533c4.713,0,8.533-3.821,8.533-8.533v-8.533c0.001-2.263-0.898-4.434-2.499-6.035
				C260.473,128.898,258.302,127.999,256.039,128z"/>
			<path fill="#e3871d" d="M256.039,170.667c-2.263-0.001-4.434,0.898-6.035,2.499c-1.6,1.6-2.499,3.771-2.499,6.035v8.533
				c0,4.713,3.82,8.533,8.533,8.533c4.713,0,8.533-3.82,8.533-8.533V179.2c0.001-2.263-0.898-4.434-2.499-6.035
				C260.473,171.565,258.302,170.666,256.039,170.667z"/>
			<path fill="#e3871d" d="M256.039,213.333c-2.263-0.001-4.434,0.898-6.035,2.499c-1.6,1.6-2.499,3.771-2.499,6.035v8.533
				c0,4.713,3.82,8.533,8.533,8.533c4.713,0,8.533-3.82,8.533-8.533v-8.533c0.001-2.263-0.898-4.434-2.499-6.035
				C260.473,214.232,258.302,213.333,256.039,213.333z"/>
			<path fill="#e3871d" d="M256.039,256c-2.263-0.001-4.434,0.898-6.035,2.499c-1.6,1.6-2.499,3.771-2.499,6.035v8.533
				c0,4.713,3.82,8.533,8.533,8.533c4.713,0,8.533-3.821,8.533-8.533v-8.533c0.001-2.263-0.898-4.434-2.499-6.035
				C260.473,256.898,258.302,255.999,256.039,256z"/>
			<path fill="#e3871d" d="M221.372,120c0-2.263-0.899-4.433-2.5-6.033c-1.6-1.601-3.77-2.5-6.033-2.5c-2.263,0-4.433,0.899-6.033,2.5L79.872,240.9
				c-2.156,2.156-2.997,5.297-2.208,8.242c0.789,2.944,3.089,5.244,6.033,6.033c2.944,0.789,6.086-0.053,8.242-2.208
				l126.933-126.933C220.473,124.433,221.372,122.263,221.372,120z"/>
			<path fill="#e3871d" d="M130.389,421.388c-13.099,13.1-13.098,34.339,0.002,47.438c13.1,13.099,34.338,13.099,47.438,0
				c13.1-13.099,13.101-34.338,0.002-47.438C164.55,408.729,143.669,408.729,130.389,421.388z M165.764,456.758
				c-6.529,6.208-16.779,6.208-23.308,0c-6.435-6.436-6.434-16.87,0.001-23.305c6.436-6.435,16.87-6.435,23.305,0
				C172.198,439.888,172.199,450.322,165.764,456.758z"/>
			<path fill="#e3871d" d="M357.972,478.642c13.567,0.004,25.8-8.167,30.992-20.701s2.321-26.962-7.275-36.553
				c-13.281-12.658-34.161-12.658-47.442,0c-9.597,9.592-12.468,24.022-7.273,36.557
				C332.168,470.479,344.404,478.649,357.972,478.642z M346.314,433.454c6.529-6.208,16.779-6.208,23.308,0
				c6.425,6.44,6.425,16.865,0,23.305c-6.529,6.208-16.779,6.208-23.308,0C339.888,450.319,339.888,439.894,346.314,433.454z"/>
		</g>
	</g>
</g>
<g>
</g>
<g>
</g>
<g>
</g>
<g>
</g>
<g>
</g>
<g>
</g>
<g>
</g>
<g>
</g>
<g>
</g>
<g>
</g>
<g>
</g>
<g>
</g>
<g>
</g>
<g>
</g>
<g>
</g>
</svg>
